<svg width="491" height="307" viewBox="0 0 491 307" fill="none" xmlns="http://www.w3.org/2000/svg">
<path d="M424.364 204.864C423.865 204.051 423.551 203.139 423.443 202.191C423.335 201.244 423.436 200.285 423.739 199.381C424.042 198.477 424.54 197.65 425.197 196.959C425.854 196.268 426.654 195.73 427.542 195.381L426.62 172.224L436.932 178.449L436.226 199.485C436.712 201.015 436.62 202.67 435.967 204.137C435.315 205.603 434.146 206.779 432.684 207.442C431.222 208.105 429.568 208.209 428.034 207.734C426.501 207.258 425.195 206.237 424.364 204.864V204.864Z" fill="#A0616A"/>
<path d="M438.127 189.851L428.96 191.315C428.575 191.377 428.182 191.361 427.803 191.268C427.425 191.175 427.069 191.007 426.756 190.774C426.444 190.541 426.181 190.248 425.983 189.912C425.786 189.576 425.658 189.204 425.606 188.818L421.728 159.614L402.564 133.391C401.854 132.42 401.351 131.314 401.085 130.141C400.82 128.968 400.797 127.753 401.019 126.571C401.241 125.389 401.703 124.265 402.376 123.268C403.049 122.271 403.919 121.423 404.933 120.775L404.932 120.775C406.901 119.517 409.288 119.093 411.57 119.595C413.851 120.098 415.839 121.486 417.097 123.454L436.669 154.077L440.565 186.622C440.59 186.83 440.593 187.04 440.574 187.248C440.513 187.892 440.24 188.498 439.797 188.969C439.354 189.441 438.766 189.751 438.127 189.851V189.851Z" fill="#6C63FF"/>
<path d="M406.523 298.246H398.571L394.788 267.578L406.524 267.578L406.523 298.246Z" fill="#A0616A"/>
<path d="M392.89 295.974H408.227V305.629H383.234C383.234 303.069 384.251 300.613 386.062 298.802C387.873 296.992 390.329 295.974 392.89 295.974V295.974Z" fill="#2F2E41"/>
<path d="M440.075 284.637L434.133 289.922L411.985 268.087L419.688 261.722L440.075 284.637Z" fill="#A0616A"/>
<path d="M428.379 291.999L439.838 281.807L446.256 289.021L427.582 305.63C426.739 304.683 426.091 303.579 425.675 302.381C425.259 301.183 425.083 299.915 425.157 298.65C425.231 297.384 425.554 296.145 426.106 295.004C426.659 293.863 427.431 292.842 428.379 291.999V291.999Z" fill="#2F2E41"/>
<path d="M326.609 122.873C327.537 122.657 328.502 122.647 329.435 122.844C330.368 123.04 331.247 123.439 332.009 124.012C332.771 124.585 333.398 125.318 333.846 126.16C334.295 127.002 334.553 127.931 334.603 128.883L356.869 135.324L347.705 143.139L327.965 135.825C326.36 135.803 324.818 135.193 323.633 134.11C322.448 133.028 321.7 131.548 321.533 129.952C321.366 128.355 321.79 126.753 322.726 125.448C323.661 124.144 325.043 123.227 326.609 122.873V122.873Z" fill="#A0616A"/>
<path d="M396.029 100.648C404.828 100.648 411.961 93.5167 411.961 84.7193C411.961 75.9218 404.828 68.7901 396.029 68.7901C387.231 68.7901 380.098 75.9218 380.098 84.7193C380.098 93.5167 387.231 100.648 396.029 100.648Z" fill="#A0616A"/>
<path d="M407.499 292.504L396.431 291.618C395.716 291.562 395.047 291.243 394.552 290.724C394.056 290.206 393.77 289.522 393.746 288.806L390.657 195.522C390.632 194.801 390.875 194.097 391.339 193.545C391.804 192.993 392.456 192.633 393.171 192.535L415.238 189.456C415.693 189.393 416.156 189.438 416.59 189.587C417.024 189.736 417.417 189.985 417.736 190.315C418.056 190.644 418.294 191.044 418.429 191.483C418.565 191.921 418.596 192.385 418.519 192.838L410.074 242.29C410.051 242.426 410.04 242.563 410.042 242.701L410.651 289.556C410.656 289.943 410.584 290.326 410.439 290.685C410.295 291.044 410.081 291.37 409.809 291.645C409.537 291.92 409.213 292.139 408.857 292.288C408.5 292.437 408.117 292.513 407.73 292.513C407.653 292.513 407.576 292.51 407.499 292.504Z" fill="#2F2E41"/>
<path d="M421.675 281.316L383.652 239.005C383.379 238.701 383.172 238.342 383.046 237.953C382.92 237.563 382.877 237.152 382.921 236.745L387.723 191.732C387.802 190.982 388.168 190.292 388.746 189.806C389.323 189.321 390.067 189.078 390.819 189.13L414.155 190.685C414.601 190.715 415.034 190.847 415.421 191.07C415.808 191.294 416.139 191.604 416.387 191.975C416.636 192.347 416.796 192.771 416.854 193.214C416.913 193.657 416.869 194.108 416.726 194.531L402.744 235.888C402.61 236.283 402.587 236.706 402.678 237.112C402.77 237.519 402.971 237.892 403.261 238.191L435.559 271.659C435.865 271.976 436.095 272.358 436.233 272.777C436.37 273.196 436.41 273.641 436.351 274.078C436.292 274.514 436.134 274.932 435.891 275.299C435.647 275.667 435.323 275.974 434.943 276.198L425.331 281.877C424.75 282.219 424.069 282.35 423.403 282.248C422.737 282.145 422.126 281.816 421.675 281.316L421.675 281.316Z" fill="#2F2E41"/>
<path d="M393.174 110.488C393.174 110.488 402.904 102.057 407.445 106.597C407.445 106.597 428.526 119.892 419.445 156.211C419.445 156.211 427.228 191.233 423.985 192.53C420.742 193.827 387.985 198.691 385.391 194.8C382.796 190.909 381.499 131.242 393.174 110.488Z" fill="#6C63FF"/>
<path d="M336.507 140.671L338.013 131.512C338.077 131.128 338.216 130.76 338.424 130.43C338.632 130.101 338.904 129.816 339.223 129.593C339.543 129.37 339.904 129.213 340.285 129.132C340.666 129.051 341.06 129.047 341.443 129.12L370.381 134.666L401.317 124.768C402.463 124.402 403.672 124.274 404.869 124.392C406.066 124.511 407.226 124.873 408.277 125.457C409.329 126.041 410.25 126.834 410.983 127.788C411.716 128.741 412.247 129.835 412.541 131.001L412.541 131C413.113 133.265 412.761 135.664 411.564 137.669C410.367 139.675 408.422 141.123 406.157 141.694L370.915 150.589L338.801 144.004C338.596 143.962 338.396 143.899 338.204 143.815C337.612 143.554 337.124 143.103 336.817 142.534C336.509 141.965 336.4 141.309 336.507 140.671V140.671Z" fill="#6C63FF"/>
<path d="M402.866 97.6403C404.322 94.2714 405.554 89.7847 402.761 87.4028C401.142 86.0212 398.809 86.0184 396.686 85.8465C390.708 85.3622 384.553 82.6117 381.631 77.374C378.709 72.1364 380.34 64.3482 385.854 61.9851C389.57 60.3923 393.83 61.4774 397.72 62.5803L409.4 65.8918C412.87 66.8757 416.514 67.9608 419.012 70.5623C422.996 74.7113 422.699 81.725 419.534 86.5284C416.369 91.3318 411.603 96.3416 406.147 98.1653L402.866 97.6403Z" fill="#2F2E41"/>
<path d="M490.351 307H329.487C329.315 307 329.15 306.932 329.028 306.81C328.907 306.688 328.838 306.523 328.838 306.351C328.838 306.179 328.907 306.014 329.028 305.893C329.15 305.771 329.315 305.703 329.487 305.703H490.351C490.523 305.703 490.688 305.771 490.81 305.893C490.932 306.014 491 306.179 491 306.351C491 306.523 490.932 306.688 490.81 306.81C490.688 306.932 490.523 307 490.351 307Z" fill="#3F3D56"/>
<path d="M320.432 6.10352e-05H4.54053C3.33672 0.00139657 2.18259 0.480129 1.33136 1.33123C0.480136 2.18234 0.00133573 3.3363 0 4.53995V238.02C0.00133573 239.223 0.480136 240.377 1.33136 241.228C2.18259 242.08 3.33672 242.558 4.54053 242.56H320.432C321.635 242.558 322.789 242.08 323.641 241.228C324.492 240.377 324.971 239.223 324.972 238.02V4.53995C324.971 3.3363 324.492 2.18234 323.641 1.33123C322.789 0.480129 321.635 0.00139657 320.432 6.10352e-05V6.10352e-05ZM323.675 238.02C323.674 238.88 323.333 239.704 322.724 240.312C322.116 240.92 321.292 241.262 320.432 241.262H4.54053C3.68047 241.262 2.85574 240.92 2.24759 240.312C1.63944 239.704 1.29764 238.88 1.29729 238.02V4.53995C1.29764 3.68001 1.63944 2.85539 2.24759 2.24733C2.85574 1.63927 3.68047 1.29751 4.54053 1.29717H320.432C321.292 1.29751 322.116 1.63927 322.724 2.24733C323.333 2.85539 323.674 3.68001 323.675 4.53995V238.02Z" fill="#3F3D56"/>
<path d="M324.323 18.1854H0.648682V19.4825H324.323V18.1854Z" fill="#3F3D56"/>
<path d="M11.6757 13.6196C13.8251 13.6196 15.5676 11.8774 15.5676 9.7283C15.5676 7.57918 13.8251 5.83698 11.6757 5.83698C9.52627 5.83698 7.78381 7.57918 7.78381 9.7283C7.78381 11.8774 9.52627 13.6196 11.6757 13.6196Z" fill="#3F3D56"/>
<path d="M22.8648 13.6196C25.0142 13.6196 26.7567 11.8774 26.7567 9.7283C26.7567 7.57918 25.0142 5.83698 22.8648 5.83698C20.7154 5.83698 18.9729 7.57918 18.9729 9.7283C18.9729 11.8774 20.7154 13.6196 22.8648 13.6196Z" fill="#3F3D56"/>
<path d="M34.054 13.6196C36.2034 13.6196 37.9459 11.8774 37.9459 9.7283C37.9459 7.57918 36.2034 5.83698 34.054 5.83698C31.9046 5.83698 30.1621 7.57918 30.1621 9.7283C30.1621 11.8774 31.9046 13.6196 34.054 13.6196Z" fill="#3F3D56"/>
<path d="M195.776 201.898C195.604 201.898 195.439 201.83 195.318 201.708C195.196 201.587 195.128 201.422 195.128 201.25V174.659C195.128 174.487 195.196 174.322 195.318 174.2C195.439 174.079 195.604 174.01 195.776 174.01C195.948 174.01 196.113 174.079 196.235 174.2C196.357 174.322 196.425 174.487 196.425 174.659V201.25C196.425 201.422 196.357 201.587 196.235 201.708C196.113 201.83 195.948 201.898 195.776 201.898V201.898Z" fill="#3F3D56"/>
<path d="M194.887 164.282C194.773 164.282 194.66 164.252 194.561 164.194L157.708 142.724C157.56 142.638 157.452 142.495 157.408 142.329C157.365 142.163 157.389 141.986 157.475 141.838C157.562 141.689 157.704 141.581 157.87 141.537C158.036 141.493 158.213 141.517 158.361 141.603L195.214 163.073C195.338 163.145 195.434 163.255 195.488 163.387C195.542 163.519 195.551 163.665 195.514 163.803C195.477 163.94 195.395 164.062 195.282 164.149C195.169 164.235 195.03 164.282 194.887 164.282V164.282Z" fill="#3F3D56"/>
<path d="M121.183 164.282C121.04 164.282 120.901 164.235 120.788 164.149C120.675 164.062 120.593 163.94 120.556 163.803C120.519 163.665 120.528 163.519 120.582 163.387C120.636 163.255 120.732 163.145 120.856 163.073L157.708 141.603C157.857 141.518 158.034 141.494 158.199 141.538C158.365 141.582 158.507 141.69 158.593 141.839C158.68 141.987 158.704 142.163 158.66 142.329C158.617 142.495 158.509 142.637 158.361 142.724L121.509 164.194C121.41 164.252 121.297 164.282 121.183 164.282V164.282Z" fill="#3F3D56"/>
<path d="M233.157 196.71C233.043 196.71 232.93 196.68 232.831 196.622L195.978 175.152C195.83 175.065 195.722 174.923 195.679 174.757C195.635 174.591 195.659 174.414 195.745 174.266C195.832 174.117 195.974 174.009 196.14 173.965C196.306 173.921 196.483 173.945 196.632 174.031L233.485 195.501C233.608 195.573 233.704 195.683 233.758 195.815C233.812 195.947 233.821 196.093 233.784 196.231C233.747 196.368 233.665 196.49 233.552 196.576C233.439 196.663 233.3 196.71 233.157 196.71V196.71Z" fill="#3F3D56"/>
<path d="M159.453 196.71C159.31 196.71 159.172 196.663 159.058 196.576C158.945 196.49 158.863 196.368 158.826 196.231C158.789 196.093 158.798 195.947 158.852 195.815C158.906 195.683 159.002 195.573 159.126 195.501L195.979 174.031C196.127 173.945 196.304 173.922 196.47 173.966C196.635 174.01 196.777 174.118 196.863 174.266C196.95 174.415 196.974 174.591 196.93 174.757C196.887 174.923 196.78 175.065 196.632 175.152L159.779 196.622C159.68 196.679 159.567 196.71 159.453 196.71V196.71Z" fill="#3F3D56"/>
<path d="M158.155 131.206C157.983 131.206 157.818 131.138 157.697 131.016C157.575 130.895 157.507 130.73 157.506 130.559L157.446 106.96C157.446 106.874 157.463 106.79 157.495 106.711C157.527 106.633 157.575 106.561 157.635 106.501C157.695 106.44 157.767 106.392 157.845 106.359C157.924 106.327 158.008 106.31 158.093 106.31H158.095C158.267 106.309 158.431 106.378 158.553 106.499C158.675 106.62 158.743 106.785 158.744 106.956L158.804 130.556C158.804 130.641 158.787 130.725 158.755 130.804C158.722 130.883 158.675 130.954 158.615 131.015C158.555 131.075 158.483 131.123 158.405 131.156C158.326 131.189 158.242 131.206 158.157 131.206L158.155 131.206Z" fill="#3F3D56"/>
<path d="M166.544 143.474H149.646C148.872 143.473 148.13 143.165 147.583 142.618C147.035 142.071 146.728 141.329 146.727 140.555V131.877C146.728 131.103 147.035 130.361 147.583 129.814C148.13 129.267 148.872 128.959 149.646 128.958H166.544C167.318 128.959 168.06 129.267 168.607 129.814C169.154 130.361 169.462 131.103 169.463 131.877V140.555C169.462 141.329 169.154 142.071 168.607 142.618C168.06 143.165 167.318 143.473 166.544 143.474V143.474Z" fill="#CCCCCC"/>
<path d="M138.575 99.3591H102.619C102.447 99.3591 102.282 99.2908 102.16 99.1692C102.038 99.0475 101.97 98.8826 101.97 98.7106C101.97 98.5386 102.038 98.3736 102.16 98.252C102.282 98.1304 102.447 98.062 102.619 98.062H138.575C138.748 98.062 138.912 98.1304 139.034 98.252C139.156 98.3736 139.224 98.5386 139.224 98.7106C139.224 98.8826 139.156 99.0475 139.034 99.1692C138.912 99.2908 138.748 99.3591 138.575 99.3591Z" fill="#3F3D56"/>
<path d="M158.095 90.0956C157.923 90.0956 157.758 90.0273 157.636 89.9057C157.515 89.784 157.446 89.6191 157.446 89.4471V66.9988C157.446 66.8268 157.515 66.6618 157.636 66.5402C157.758 66.4186 157.923 66.3502 158.095 66.3502C158.267 66.3502 158.432 66.4186 158.554 66.5402C158.675 66.6618 158.744 66.8268 158.744 66.9988V89.4471C158.744 89.6191 158.675 89.784 158.554 89.9057C158.432 90.0273 158.267 90.0956 158.095 90.0956V90.0956Z" fill="#3F3D56"/>
<path d="M88.6291 99.3591C88.5129 99.3592 88.3988 99.3279 88.299 99.2685L53.392 78.5822C53.2445 78.4943 53.1378 78.3514 53.0955 78.185C53.0531 78.0186 53.0785 77.8421 53.1661 77.6944C53.2537 77.5467 53.3962 77.4397 53.5626 77.3969C53.7289 77.3541 53.9055 77.3791 54.0535 77.4663L88.9605 98.1526C89.0828 98.2251 89.1779 98.3358 89.2311 98.4676C89.2844 98.5995 89.2928 98.7451 89.2552 98.8823C89.2175 99.0194 89.1358 99.1403 89.0227 99.2265C88.9096 99.3126 88.7713 99.3592 88.6291 99.3591V99.3591Z" fill="#3F3D56"/>
<path d="M53.7235 120.045C53.5813 120.045 53.443 119.999 53.3298 119.913C53.2167 119.827 53.135 119.706 53.0974 119.569C53.0597 119.431 53.0682 119.286 53.1214 119.154C53.1747 119.022 53.2698 118.911 53.3921 118.839L88.2991 98.1525C88.4471 98.0648 88.6239 98.0395 88.7906 98.0821C88.9572 98.1247 89.1001 98.2318 89.1879 98.3798C89.2756 98.5278 89.3009 98.7046 89.2583 98.8712C89.2157 99.0379 89.1086 99.1808 88.9606 99.2685L54.0536 119.955C53.9537 120.014 53.8396 120.045 53.7235 120.045V120.045Z" fill="#3F3D56"/>
<path d="M100.024 109.82H91.3443C90.5704 109.819 89.8285 109.512 89.2813 108.964C88.7341 108.417 88.4263 107.675 88.4254 106.902V90.0057C88.4263 89.2319 88.7341 88.4901 89.2813 87.943C89.8285 87.3958 90.5704 87.0881 91.3443 87.0872H100.024C100.798 87.0881 101.54 87.3958 102.087 87.943C102.634 88.4901 102.942 89.2319 102.943 90.0057V106.902C102.942 107.675 102.634 108.417 102.087 108.964C101.54 109.512 100.798 109.819 100.024 109.82V109.82Z" fill="#CCCCCC"/>
<path d="M166.544 68.744H149.646C148.872 68.7431 148.13 68.4354 147.583 67.8882C147.035 67.3411 146.728 66.5993 146.727 65.8255V57.1466C146.728 56.3729 147.035 55.6311 147.583 55.0839C148.13 54.5368 148.872 54.229 149.646 54.2281H166.544C167.318 54.229 168.06 54.5368 168.607 55.0839C169.154 55.6311 169.462 56.3729 169.463 57.1466V65.8255C169.462 66.5993 169.154 67.3411 168.607 67.8882C168.06 68.4354 167.318 68.7431 166.544 68.744V68.744Z" fill="#CCCCCC"/>
<path d="M51.3756 89.715H42.6958C41.9219 89.7141 41.1799 89.4063 40.6327 88.8592C40.0855 88.3121 39.7777 87.5702 39.7769 86.7965V69.9005C39.7777 69.1267 40.0855 68.3849 40.6327 67.8378C41.1799 67.2906 41.9219 66.9829 42.6958 66.982H51.3756C52.1495 66.9829 52.8914 67.2906 53.4386 67.8378C53.9859 68.3849 54.2937 69.1267 54.2945 69.9005V86.7965C54.2937 87.5702 53.9859 88.3121 53.4386 88.8592C52.8914 89.4063 52.1495 89.7141 51.3756 89.715V89.715Z" fill="#CCCCCC"/>
<path d="M51.3756 130.574H42.6958C41.9219 130.573 41.1799 130.265 40.6327 129.718C40.0855 129.171 39.7777 128.429 39.7769 127.655V110.759C39.7777 109.986 40.0855 109.244 40.6327 108.697C41.1799 108.15 41.9219 107.842 42.6958 107.841H51.3756C52.1495 107.842 52.8914 108.15 53.4386 108.697C53.9859 109.244 54.2937 109.986 54.2945 110.759V127.655C54.2937 128.429 53.9859 129.171 53.4386 129.718C52.8914 130.265 52.1495 130.573 51.3756 130.574Z" fill="#CCCCCC"/>
<path d="M213.571 99.3591H177.614C177.442 99.3591 177.277 99.2908 177.156 99.1692C177.034 99.0475 176.966 98.8826 176.966 98.7106C176.966 98.5386 177.034 98.3736 177.156 98.252C177.277 98.1304 177.442 98.062 177.614 98.062H213.571C213.743 98.062 213.908 98.1304 214.03 98.252C214.151 98.3736 214.22 98.5386 214.22 98.7106C214.22 98.8826 214.151 99.0475 214.03 99.1692C213.908 99.2908 213.743 99.3591 213.571 99.3591Z" fill="#3F3D56"/>
<path d="M227.561 99.3592C227.419 99.3593 227.28 99.3127 227.167 99.2266C227.054 99.1404 226.972 99.0194 226.935 98.8823C226.897 98.7452 226.905 98.5995 226.959 98.4676C227.012 98.3358 227.107 98.2251 227.23 98.1526L262.136 77.4663C262.21 77.4229 262.291 77.3943 262.375 77.3823C262.459 77.3702 262.545 77.3749 262.628 77.396C262.71 77.4171 262.788 77.4542 262.856 77.5053C262.924 77.5564 262.982 77.6204 263.025 77.6937C263.069 77.767 263.097 77.8481 263.109 77.9324C263.121 78.0167 263.117 78.1026 263.095 78.1851C263.074 78.2676 263.037 78.3451 262.986 78.4133C262.935 78.4815 262.871 78.5389 262.798 78.5823L227.891 99.2686C227.791 99.3279 227.677 99.3592 227.561 99.3592V99.3592Z" fill="#3F3D56"/>
<path d="M262.466 120.045C262.35 120.045 262.236 120.014 262.136 119.955L227.23 99.2686C227.081 99.1809 226.974 99.038 226.932 98.8714C226.889 98.7047 226.914 98.528 227.002 98.38C227.09 98.232 227.233 98.1249 227.399 98.0823C227.566 98.0396 227.743 98.0649 227.891 98.1526L262.798 118.839C262.92 118.911 263.015 119.022 263.069 119.154C263.122 119.286 263.13 119.431 263.093 119.569C263.055 119.706 262.973 119.827 262.86 119.913C262.747 119.999 262.609 120.046 262.466 120.045V120.045Z" fill="#3F3D56"/>
<path d="M224.846 109.82H216.166C215.392 109.819 214.65 109.512 214.103 108.964C213.556 108.417 213.248 107.675 213.247 106.902V90.0057C213.248 89.232 213.556 88.4901 214.103 87.943C214.65 87.3959 215.392 87.0881 216.166 87.0872H224.846C225.619 87.0881 226.361 87.3959 226.909 87.943C227.456 88.4901 227.764 89.232 227.764 90.0057V106.902C227.764 107.675 227.456 108.417 226.909 108.964C226.361 109.512 225.619 109.819 224.846 109.82Z" fill="#CCCCCC"/>
<path d="M273.494 89.715H264.814C264.04 89.7141 263.299 89.4063 262.751 88.8592C262.204 88.3121 261.896 87.5702 261.895 86.7965V69.9005C261.896 69.1267 262.204 68.3849 262.751 67.8378C263.299 67.2906 264.04 66.9829 264.814 66.982H273.494C274.268 66.9829 275.01 67.2906 275.557 67.8378C276.104 68.3849 276.412 69.1267 276.413 69.9005V86.7965C276.412 87.5702 276.104 88.3121 275.557 88.8592C275.01 89.4063 274.268 89.7141 273.494 89.715V89.715Z" fill="#CCCCCC"/>
<path d="M273.494 130.574H264.814C264.04 130.573 263.299 130.265 262.751 129.718C262.204 129.171 261.896 128.429 261.895 127.655V110.759C261.896 109.986 262.204 109.244 262.751 108.697C263.299 108.15 264.04 107.842 264.814 107.841H273.494C274.268 107.842 275.01 108.15 275.557 108.697C276.104 109.244 276.412 109.986 276.413 110.759V127.655C276.412 128.429 276.104 129.171 275.557 129.718C275.01 130.265 274.268 130.573 273.494 130.574V130.574Z" fill="#CCCCCC"/>
<path d="M128.923 176.55H112.024C111.25 176.549 110.508 176.241 109.961 175.694C109.414 175.147 109.106 174.405 109.105 173.632V164.953C109.106 164.179 109.414 163.437 109.961 162.89C110.508 162.343 111.25 162.035 112.024 162.035H128.923C129.697 162.035 130.439 162.343 130.986 162.89C131.533 163.437 131.841 164.179 131.842 164.953V173.632C131.841 174.405 131.533 175.147 130.986 175.694C130.439 176.241 129.697 176.549 128.923 176.55Z" fill="#CCCCCC"/>
<path d="M204.046 176.55H187.147C186.373 176.549 185.631 176.241 185.084 175.694C184.537 175.147 184.229 174.405 184.228 173.632V164.953C184.229 164.179 184.537 163.437 185.084 162.89C185.631 162.343 186.373 162.035 187.147 162.035H204.046C204.82 162.035 205.562 162.343 206.109 162.89C206.656 163.437 206.964 164.179 206.965 164.953V173.632C206.964 174.405 206.656 175.147 206.109 175.694C205.562 176.241 204.82 176.549 204.046 176.55Z" fill="#CCCCCC"/>
<path d="M169.667 208.329H152.769C151.995 208.329 151.253 208.021 150.706 207.474C150.159 206.926 149.851 206.185 149.85 205.411V196.732C149.851 195.959 150.159 195.217 150.706 194.67C151.253 194.122 151.995 193.815 152.769 193.814H169.667C170.441 193.815 171.183 194.122 171.73 194.67C172.278 195.217 172.585 195.959 172.586 196.732V205.411C172.585 206.185 172.278 206.926 171.73 207.474C171.183 208.021 170.441 208.329 169.667 208.329Z" fill="#CCCCCC"/>
<path d="M241.667 208.329H224.769C223.995 208.329 223.253 208.021 222.706 207.474C222.159 206.926 221.851 206.185 221.85 205.411V196.732C221.851 195.959 222.159 195.217 222.706 194.67C223.253 194.122 223.995 193.815 224.769 193.814H241.667C242.441 193.815 243.183 194.122 243.73 194.67C244.278 195.217 244.585 195.959 244.586 196.732V205.411C244.585 206.185 244.278 206.926 243.73 207.474C243.183 208.021 242.441 208.329 241.667 208.329V208.329Z" fill="#CCCCCC"/>
<path d="M204.046 208.329H187.147C186.373 208.329 185.631 208.021 185.084 207.474C184.537 206.926 184.229 206.185 184.228 205.411V196.732C184.229 195.959 184.537 195.217 185.084 194.67C185.631 194.122 186.373 193.815 187.147 193.814H204.046C204.82 193.815 205.562 194.122 206.109 194.67C206.656 195.217 206.964 195.959 206.965 196.732V205.411C206.964 206.185 206.656 206.926 206.109 207.474C205.562 208.021 204.82 208.329 204.046 208.329Z" fill="#CCCCCC"/>
<path d="M178.637 109.993H137.553C136.779 109.992 136.037 109.684 135.49 109.137C134.943 108.59 134.635 107.848 134.634 107.074V90.3468C134.635 89.573 134.943 88.8312 135.49 88.2841C136.037 87.7369 136.779 87.4292 137.553 87.4283H178.637C179.411 87.4292 180.153 87.7369 180.7 88.2841C181.247 88.8312 181.555 89.573 181.556 90.3468V107.074C181.555 107.848 181.247 108.59 180.7 109.137C180.153 109.684 179.411 109.992 178.637 109.993V109.993Z" fill="#6C63FF"/>
</svg>
